PathFileType	3	(X/Y/Z)	D:\VICON_DB\Goncalves\Pilot01\09-03-2026\static_01.trc
DataRate	CameraRate	NumFrames	NumMarkers	Units	OrigDataRate	OrigDataStartFrame	OrigNumFrames
200.0	200.0	5	34	mm	200.0	121	321	
Frame#	Time	LASI			RASI			LPSI			RPSI			LTHI			LTHAP			LTHAD			LKNE			LKNM			LTIB			LTIAP			LTIAD			LANK			LMED			LHEE			LTOE			LFMH			LSMH			LVMH			RTHI			RTHAP			RTHAD			RKNE			RKNM			RTIB			RTIAP			RTIAD			RANK			RMED			RHEE			RTOE			RFMH			RSMH			RVMH			
		X1	Y1	Z1	X2	Y2	Z2	X3	Y3	Z3	X4	Y4	Z4	X5	Y5	Z5	X6	Y6	Z6	X7	Y7	Z7	X8	Y8	Z8	X9	Y9	Z9	X10	Y10	Z10	X11	Y11	Z11	X12	Y12	Z12	X13	Y13	Z13	X14	Y14	Z14	X15	Y15	Z15	X16	Y16	Z16	X17	Y17	Z17	X18	Y18	Z18	X19	Y19	Z19	X20	Y20	Z20	X21	Y21	Z21	X22	Y22	Z22	X23	Y23	Z23	X24	Y24	Z24	X25	Y25	Z25	X26	Y26	Z26	X27	Y27	Z27	X28	Y28	Z28	X29	Y29	Z29	X30	Y30	Z30	X31	Y31	Z31	X32	Y32	Z32	X33	Y33	Z33	X34	Y34	Z34	
121	0.6	121.73605	904.31549	-1064.4761	118.2048	905.49286	-1329.735	298.35501	955.62402	-1187	312.72144	954.1532	-1229.4454	126.6657	694.526	-1032.6061	144.8799	768.19287	-1018.8397	170.67004	630.31885	-1008.6819	222.8636	475.00076	-1024.6405	200.47928	464.89142	-1152.7358	259.60788	281.60516	-1004.567	202.64958	357.40927	-1060.2427	217.62241	254.99525	-1032.5376	272.80066	70.200188	-1027.2581	239.58546	81.062149	-1107.8959	315.12418	61.567875	-1080.4009	191.32527	71.839119	-1047.4917	134.22864	44.954029	-1073.1222	133.86641	39.326839	-1032.881	149.18538	25.639175	-993.04626	162.1198	626.45721	-1381.8367	125.82688	752.85211	-1358.1594	109.28587	661.28632	-1336.025	209.6555	490.98599	-1364.7964	207.02599	434.49619	-1244.543	228.41196	296.42688	-1383.3474	189.27243	346.73624	-1328.3363	194.20433	265.47147	-1331.2382	269.05603	62.047302	-1356.2638	233.7415	90.094376	-1276.2487	305.17194	57.765789	-1314.1302	176.74898	69.154411	-1340.4381	126.24348	49.421173	-1315.3821	123.97626	40.590523	-1351.422	139.99413	20.401751	-1388.7504
122	0.605	121.75699	904.32471	-1064.438	118.21461	905.45758	-1329.6655	298.51099	955.75708	-1186.92	312.71988	954.16766	-1229.4149	126.68422	694.54413	-1032.5742	144.8826	768.21936	-1018.7938	170.68738	630.33319	-1008.6487	222.87144	475.01923	-1024.6101	200.49884	464.89072	-1152.7067	259.60486	281.60947	-1004.5468	202.68001	357.4274	-1060.196	217.63261	255.00169	-1032.5157	273.08673	70.253845	-1027.1033	239.5723	81.065742	-1107.8987	315.12024	61.581314	-1080.4214	191.49382	71.843117	-1047.4152	134.24545	44.951778	-1073.1067	133.87245	39.315552	-1032.8928	149.17845	25.666971	-993.02631	162.12997	626.45734	-1381.7703	125.75546	752.8822	-1358.1748	109.26362	661.29102	-1335.9923	209.65335	490.957	-1364.7565	207.08575	434.49231	-1244.5032	228.4232	296.42062	-1383.3112	189.27394	346.73868	-1328.3296	194.21335	265.4751	-1331.2146	269.0574	62.040722	-1356.2596	233.75099	90.096054	-1276.2421	305.16168	57.773888	-1314.1506	176.7393	69.150955	-1340.4609	126.25211	49.437714	-1315.3611	123.98957	40.592651	-1351.4178	139.91345	20.532978	-1388.8624
123	0.61	121.74515	904.32599	-1064.3915	118.22465	905.44421	-1329.5853	298.80899	955.74908	-1186.4801	312.74564	954.18677	-1229.3635	126.71201	694.54272	-1032.5253	144.89827	768.23541	-1018.7393	170.71265	630.35193	-1008.6188	222.89355	475.03149	-1024.5745	200.50647	464.89294	-1152.6884	259.60941	281.62192	-1004.5376	202.69531	357.45538	-1060.1968	217.64192	255.00279	-1032.5182	272.72971	70.336136	-1027.2317	239.56479	81.070404	-1107.9277	315.11133	61.585285	-1080.4301	191.47697	71.831635	-1047.4373	134.242	44.959167	-1073.1213	133.88661	39.318184	-1032.8907	149.18359	25.669535	-993.04327	162.10165	626.45782	-1381.7496	125.75571	752.89685	-1358.1177	109.24023	661.2948	-1335.9464	209.65883	490.95087	-1364.722	207.04564	434.48099	-1244.4797	228.43568	296.40915	-1383.2677	189.25677	346.74771	-1328.2943	194.21666	265.47781	-1331.1892	269.04633	62.04073	-1356.2505	233.75427	90.114548	-1276.2426	305.15845	57.770473	-1314.1593	176.73221	69.170319	-1340.4403	126.26739	49.410789	-1315.3492	123.99445	40.638012	-1351.448	139.67087	20.656862	-1389.1484
124	0.615	121.75185	904.33441	-1064.3591	118.21434	905.44513	-1329.5347	298.72803	955.70001	-1186.4901	312.70749	954.18396	-1229.3496	126.714	694.55127	-1032.4879	144.92497	768.24103	-1018.6709	170.74648	630.34863	-1008.5617	222.92773	475.04941	-1024.5415	200.53078	464.89511	-1152.6512	259.62439	281.62872	-1004.5173	202.72717	357.42914	-1060.1842	217.66164	255.01668	-1032.4985	272.72488	70.309746	-1027.2286	239.51961	81.11161	-1107.9562	315.117	61.590618	-1080.4652	191.52626	71.830582	-1047.3966	134.23907	44.968342	-1073.1356	133.88307	39.318401	-1032.9075	149.18221	25.678534	-993.04285	162.09236	626.47803	-1381.705	125.76154	752.84924	-1358.0588	109.21952	661.32574	-1335.905	209.64809	490.95251	-1364.6775	206.99097	434.53354	-1244.4636	228.43674	296.40952	-1383.2478	189.24757	346.73187	-1328.2694	194.15189	265.50266	-1331.2128	269.04617	62.059868	-1356.2649	233.74794	90.112183	-1276.2377	305.14465	57.78265	-1314.1714	176.73615	69.168602	-1340.4302	126.2666	49.420547	-1315.3542	123.98454	40.648544	-1351.4508	139.92279	20.551577	-1388.8773
125	0.62	121.75196	904.34271	-1064.3129	118.19131	905.4325	-1329.499	298.07703	955.53906	-1187.21	312.71484	954.20563	-1229.3119	126.73798	694.55066	-1032.4308	144.93109	768.23694	-1018.6273	170.77892	630.35205	-1008.5214	222.95042	475.06241	-1024.511	200.54224	464.90378	-1152.6332	259.64471	281.61075	-1004.5323	202.7191	357.46716	-1060.1492	217.6658	255.01079	-1032.484	272.77774	70.326698	-1027.2979	239.59599	81.072662	-1107.8867	315.10757	61.577732	-1080.4381	191.47212	71.861023	-1047.418	134.26031	44.95689	-1073.1176	133.88156	39.317066	-1032.9075	149.19225	25.672081	-993.04773	162.10686	626.45416	-1381.6737	125.78945	752.8728	-1357.955	109.34187	661.27563	-1335.6704	209.6286	490.92645	-1364.6752	207.05518	434.49399	-1244.4165	228.42221	296.41269	-1383.2432	189.23381	346.7204	-1328.2563	194.20103	265.49277	-1331.1688	269.04919	62.049984	-1356.249	233.75955	90.10672	-1276.2308	305.15555	57.769444	-1314.1523	176.75789	69.149788	-1340.4412	126.26636	49.415161	-1315.3547	123.97159	40.648464	-1351.4667	139.78099	20.67955	-1388.8912
